<?xml version="1.0" encoding="UTF-8" standalone="no"?>
<!DOCTYPE svg PUBLIC "-//W3C//DTD SVG 1.1//EN" "http://www.w3.org/Graphics/SVG/1.1/DTD/svg11.dtd">
<svg xmlns="http://www.w3.org/2000/svg" version="1.1" viewBox="0.00 0.00 500.00 500.00">
<g stroke-width="2.00" fill="none" stroke-linecap="butt">
<path stroke="#3b97d9" vector-effect="non-scaling-stroke" d="
  M 342.31 214.59
  Q 341.57 214.65 341.30 214.23
  Q 332.70 201.04 324.34 187.70
  Q 323.76 186.78 323.38 185.77
  Q 323.10 185.00 322.10 184.96"
/>
<path stroke="#577bbe" vector-effect="non-scaling-stroke" d="
  M 277.80 179.25
  L 272.23 174.67"
/>
<path stroke="#9e8598" vector-effect="non-scaling-stroke" d="
  M 272.23 174.67
  Q 265.15 168.29 258.68 162.53
  C 257.73 161.68 256.43 161.09 255.76 159.58"
/>
<path stroke="#556faa" vector-effect="non-scaling-stroke" d="
  M 258.33 205.18
  Q 257.95 204.85 257.66 205.52"
/>
<path stroke="#b85d69" vector-effect="non-scaling-stroke" d="
  M 272.23 174.67
  Q 267.20 174.95 261.99 172.34"
/>
<path stroke="#f45f3e" vector-effect="non-scaling-stroke" d="
  M 261.99 172.34
  Q 260.69 172.06 259.52 171.13
  Q 259.12 170.81 258.62 170.75
  Q 257.24 170.57 256.38 169.71
  Q 255.48 168.81 254.45 168.21
  C 253.12 167.44 252.09 166.54 250.61 165.89
  Q 237.22 160.05 225.73 155.50
  Q 217.27 152.15 207.55 150.43
  C 190.71 147.47 170.82 153.25 166.59 172.14
  Q 165.45 177.26 165.52 180.75
  Q 165.81 195.11 172.80 208.67"
/>
<path stroke="#aa8376" vector-effect="non-scaling-stroke" d="
  M 172.80 208.67
  L 167.57 215.33"
/>
<path stroke="#9ca47e" vector-effect="non-scaling-stroke" d="
  M 341.48 216.02
  Q 331.71 229.20 319.80 240.93"
/>
<path stroke="#9ca47e" vector-effect="non-scaling-stroke" d="
  M 312.59 271.71
  Q 308.18 273.03 303.48 272.24
  C 291.83 270.26 281.34 266.49 270.79 260.46
  Q 252.10 249.78 236.36 234.36"
/>
<path stroke="#b4c388" vector-effect="non-scaling-stroke" d="
  M 251.88 278.06
  L 232.49 262.46"
/>
<path stroke="#ad5565" vector-effect="non-scaling-stroke" d="
  M 261.99 172.34
  Q 259.47 172.37 256.48 171.30
  Q 247.47 168.08 237.17 165.74
  C 229.79 164.07 221.95 163.35 214.25 162.69
  Q 208.12 162.16 204.55 162.78"
/>
<path stroke="#9f7a72" vector-effect="non-scaling-stroke" d="
  M 187.85 189.12
  L 172.80 208.67"
/>
<path stroke="#5fb4c1" vector-effect="non-scaling-stroke" d="
  M 188.64 242.74
  Q 178.05 230.26 168.47 217.29
  Q 168.25 217.00 167.98 216.92
  Q 167.61 216.82 167.32 216.95"
/>
</g>
<path fill="#3ca2ed" d="
  M 342.31 214.59
  Q 341.57 214.65 341.30 214.23
  Q 332.70 201.04 324.34 187.70
  Q 323.76 186.78 323.38 185.77
  Q 323.10 185.00 322.10 184.96
  Q 322.77 181.50 323.19 178.00
  C 324.04 170.84 320.86 162.69 312.77 161.89
  Q 308.26 161.44 305.29 162.31
  Q 289.36 166.99 277.80 179.25
  L 272.23 174.67
  Q 265.15 168.29 258.68 162.53
  C 257.73 161.68 256.43 161.09 255.76 159.58
  Q 257.41 157.89 259.22 156.48
  C 279.24 140.87 303.25 126.10 328.73 126.87
  C 342.38 127.29 353.83 134.49 358.74 147.50
  Q 361.83 155.69 360.88 167.28
  C 359.49 184.19 352.23 201.10 342.31 214.59
  Z"
/>
<path fill="#ff6742" d="
  M 255.76 159.58
  C 256.43 161.09 257.73 161.68 258.68 162.53
  Q 265.15 168.29 272.23 174.67
  Q 267.20 174.95 261.99 172.34
  Q 260.69 172.06 259.52 171.13
  Q 259.12 170.81 258.62 170.75
  Q 257.24 170.57 256.38 169.71
  Q 255.48 168.81 254.45 168.21
  C 253.12 167.44 252.09 166.54 250.61 165.89
  Q 237.22 160.05 225.73 155.50
  Q 217.27 152.15 207.55 150.43
  C 190.71 147.47 170.82 153.25 166.59 172.14
  Q 165.45 177.26 165.52 180.75
  Q 165.81 195.11 172.80 208.67
  L 167.57 215.33
  C 156.40 197.74 146.79 179.92 148.07 158.38
  C 149.31 137.42 165.91 125.25 186.23 127.12
  Q 201.22 128.50 213.90 134.39
  C 228.08 140.97 241.07 149.77 253.97 159.23
  Q 254.54 159.65 255.76 159.58
  Z"
/>
<path fill="#e9563a" d="
  M 261.99 172.34
  Q 259.47 172.37 256.48 171.30
  Q 247.47 168.08 237.17 165.74
  C 229.79 164.07 221.95 163.35 214.25 162.69
  Q 208.12 162.16 204.55 162.78
  C 191.12 159.81 183.22 170.96 186.51 183.24
  Q 187.41 186.63 187.85 189.12
  L 172.80 208.67
  Q 165.81 195.11 165.52 180.75
  Q 165.45 177.26 166.59 172.14
  C 170.82 153.25 190.71 147.47 207.55 150.43
  Q 217.27 152.15 225.73 155.50
  Q 237.22 160.05 250.61 165.89
  C 252.09 166.54 253.12 167.44 254.45 168.21
  Q 255.48 168.81 256.38 169.71
  Q 257.24 170.57 258.62 170.75
  Q 259.12 170.81 259.52 171.13
  Q 260.69 172.06 261.99 172.34
  Z"
/>
<path fill="#71538f" d="
  M 261.99 172.34
  Q 267.20 174.95 272.23 174.67
  L 277.80 179.25
  Q 275.00 182.49 268.78 186.80
  Q 259.92 192.95 258.33 205.18
  Q 257.95 204.85 257.66 205.52
  Q 257.39 199.58 252.26 193.98
  Q 238.40 178.85 220.72 169.35
  Q 213.27 165.34 204.55 162.78
  Q 208.12 162.16 214.25 162.69
  C 221.95 163.35 229.79 164.07 237.17 165.74
  Q 247.47 168.08 256.48 171.30
  Q 259.47 172.37 261.99 172.34
  Z"
/>
<path fill="#398bc4" d="
  M 322.10 184.96
  Q 323.10 185.00 323.38 185.77
  Q 323.76 186.78 324.34 187.70
  Q 332.70 201.04 341.30 214.23
  Q 341.57 214.65 342.31 214.59
  L 341.48 216.02
  Q 331.71 229.20 319.80 240.93
  C 316.90 232.88 314.20 224.61 314.26 216.25
  Q 314.30 210.47 317.18 201.25
  Q 319.71 193.13 322.10 184.96
  Z"
/>
<path fill="#549ea9" d="
  M 187.85 189.12
  Q 188.76 191.61 191.78 201.45
  Q 195.51 213.66 192.91 225.88
  Q 191.38 233.03 188.64 242.74
  Q 178.05 230.26 168.47 217.29
  Q 168.25 217.00 167.98 216.92
  Q 167.61 216.82 167.32 216.95
  L 167.57 215.33
  L 172.80 208.67
  L 187.85 189.12
  Z"
/>
<path fill="#398bc4" d="
  M 258.33 205.18
  Q 257.77 213.86 259.73 220.27
  Q 265.45 238.92 281.02 253.49
  C 290.27 262.17 300.80 269.74 312.59 271.71
  Q 308.18 273.03 303.48 272.24
  C 291.83 270.26 281.34 266.49 270.79 260.46
  Q 252.10 249.78 236.36 234.36
  Q 244.62 226.59 249.36 221.61
  Q 255.68 214.97 257.66 205.52
  Q 257.95 204.85 258.33 205.18
  Z"
/>
<path fill="#ffbc37" d="
  M 341.48 216.02
  C 350.47 229.16 357.82 243.47 360.95 258.98
  C 363.00 269.15 362.46 280.89 357.91 290.29
  C 349.73 307.22 330.56 311.35 313.11 307.82
  Q 294.45 304.05 277.60 294.15
  Q 266.14 287.41 255.13 279.69
  Q 254.38 279.16 253.52 278.78
  Q 252.65 278.40 251.88 278.06
  L 232.49 262.46
  Q 231.68 260.46 229.97 259.04
  Q 225.99 255.73 221.75 252.34
  Q 219.00 250.15 221.60 247.78
  L 236.36 234.36
  Q 252.10 249.78 270.79 260.46
  C 281.34 266.49 291.83 270.26 303.48 272.24
  Q 308.18 273.03 312.59 271.71
  Q 316.93 270.79 319.60 267.46
  C 323.51 262.59 323.47 254.09 321.99 248.24
  Q 321.25 245.31 319.80 240.93
  Q 331.71 229.20 341.48 216.02
  Z"
/>
<path fill="#69c9d9" d="
  M 167.32 216.95
  Q 167.61 216.82 167.98 216.92
  Q 168.25 217.00 168.47 217.29
  Q 178.05 230.26 188.64 242.74
  Q 186.77 249.13 186.54 256.24
  C 186.18 267.27 194.69 272.80 204.97 272.32
  C 215.17 271.85 223.83 267.99 232.49 262.46
  L 251.88 278.06
  Q 251.19 280.24 249.65 281.39
  Q 234.66 292.58 219.16 300.04
  C 203.81 307.43 181.29 312.30 165.35 304.18
  C 148.75 295.71 145.09 275.96 148.24 259.29
  C 151.13 244.02 158.95 229.72 167.32 216.95
  Z"
/>
<rect fill="#545454" x="-9.16" y="-8.70" transform="translate(435.07,345.04) rotate(0.3)" width="18.32" height="17.40" rx="7.94"/>
<path fill="#545454" d="
  M 257.80 380.03
  L 278.46 359.13
  A 0.32 0.32 0.0 0 1 278.68 359.04
  L 294.86 359.01
  A 0.32 0.32 0.0 0 1 295.09 359.56
  L 272.68 381.72
  A 0.32 0.32 0.0 0 0 272.65 382.14
  L 296.01 412.40
  A 0.32 0.32 0.0 0 1 295.76 412.91
  L 280.05 412.99
  A 0.32 0.32 0.0 0 1 279.79 412.87
  L 263.21 391.62
  A 0.32 0.32 0.0 0 0 262.73 391.59
  L 257.34 396.96
  A 0.32 0.32 0.0 0 0 257.25 397.18
  L 257.25 412.63
  A 0.32 0.32 0.0 0 1 256.93 412.95
  L 242.85 412.96
  A 0.32 0.32 0.0 0 1 242.53 412.64
  L 242.53 337.57
  A 0.32 0.32 0.0 0 1 242.85 337.25
  L 256.93 337.24
  A 0.32 0.32 0.0 0 1 257.25 337.56
  L 257.25 379.80
  A 0.32 0.32 0.0 0 0 257.80 380.03
  Z"
/>
<path fill="#545454" d="
  M 381.05 380.00
  L 401.70 359.13
  A 0.32 0.32 0.0 0 1 401.92 359.04
  L 418.09 359.03
  A 0.32 0.32 0.0 0 1 418.32 359.58
  L 395.93 381.74
  A 0.32 0.32 0.0 0 0 395.90 382.16
  L 419.28 412.41
  A 0.32 0.32 0.0 0 1 419.03 412.92
  L 403.31 412.98
  A 0.32 0.32 0.0 0 1 403.05 412.86
  L 386.46 391.61
  A 0.32 0.32 0.0 0 0 385.98 391.59
  L 380.58 396.98
  A 0.32 0.32 0.0 0 0 380.49 397.20
  L 380.49 412.62
  A 0.32 0.32 0.0 0 1 380.17 412.94
  L 366.09 412.98
  A 0.32 0.32 0.0 0 1 365.77 412.66
  L 365.77 337.57
  A 0.32 0.32 0.0 0 1 366.09 337.25
  L 380.18 337.24
  A 0.32 0.32 0.0 0 1 380.50 337.56
  L 380.50 379.77
  A 0.32 0.32 0.0 0 0 381.05 380.00
  Z"
/>
<path fill="#545454" d="
  M 190.64 392.78
  A 20.96 20.96 0.0 0 1 169.68 413.74
  L 155.60 413.74
  A 20.96 20.96 0.0 0 1 134.64 392.78
  L 134.64 379.24
  A 20.96 20.96 0.0 0 1 155.60 358.28
  L 169.68 358.28
  A 20.96 20.96 0.0 0 1 190.64 379.24
  L 190.64 392.78
  Z
  M 175.9476 379.5735
  A 8.86 8.86 0.0 0 0 167.0568 370.7445
  L 158.1368 370.7757
  A 8.86 8.86 0.0 0 0 149.3078 379.6665
  L 149.3524 392.4265
  A 8.86 8.86 0.0 0 0 158.2432 401.2555
  L 167.1632 401.2243
  A 8.86 8.86 0.0 0 0 175.9922 392.3335
  L 175.9476 379.5735
  Z"
/>
<path fill="#545454" d="
  M 339.66 407.08
  C 335.62 411.85 330.60 413.94 324.29 413.84
  C 317.39 413.73 311.70 414.09 305.95 409.54
  Q 301.33 405.88 300.83 399.46
  C 300.46 394.64 300.67 389.39 303.89 385.79
  Q 308.79 380.31 317.14 379.58
  C 324.24 378.96 332.02 378.95 338.58 381.99
  Q 339.13 382.24 339.13 381.64
  C 339.13 376.55 339.87 370.45 332.50 370.46
  Q 327.45 370.46 322.77 370.52
  Q 317.73 370.58 316.52 375.08
  Q 316.37 375.63 315.81 375.63
  L 302.98 375.65
  Q 302.33 375.65 302.35 375.00
  C 302.71 364.65 311.34 358.70 321.10 358.29
  Q 328.29 357.98 335.15 358.33
  C 346.11 358.88 353.87 366.04 353.81 377.19
  Q 353.73 395.22 353.80 412.35
  Q 353.80 412.94 353.21 412.94
  L 340.84 412.97
  Q 340.21 412.98 340.21 412.34
  L 340.24 407.29
  Q 340.24 406.38 339.66 407.08
  Z
  M 338.34 392.68
  C 333.49 390.02 327.02 390.21 321.35 390.31
  Q 313.90 390.45 315.10 398.20
  Q 315.68 401.93 319.61 402.39
  C 326.32 403.17 336.75 403.24 339.14 394.67
  Q 339.52 393.32 338.34 392.68
  Z"
/>
<path fill="#545454" d="
  M 215.12 365.37
  C 220.04 358.92 227.51 358.30 235.36 358.85
  Q 235.96 358.90 235.96 359.49
  L 235.95 371.06
  Q 235.95 371.49 235.52 371.50
  C 231.70 371.58 226.96 371.05 223.56 372.41
  Q 215.74 375.55 215.74 384.39
  Q 215.74 398.53 215.73 412.64
  A 0.32 0.31 -0.0 0 1 215.41 412.95
  L 201.64 412.97
  Q 201.06 412.98 201.06 412.39
  L 201.06 359.29
  A 0.25 0.25 0.0 0 1 201.31 359.04
  L 213.96 359.00
  A 0.72 0.71 89.2 0 1 214.68 359.71
  L 214.69 365.23
  Q 214.69 365.94 215.12 365.37
  Z"
/>
<path fill="#545454" d="
  M 106.68 392.66
  Q 107.01 393.54 107.18 392.62
  L 113.45 359.61
  Q 113.56 359.04 114.14 359.04
  L 128.05 359.03
  Q 128.80 359.02 128.63 359.76
  Q 123.59 380.83 118.19 404.20
  C 116.02 413.57 110.41 413.16 102.43 412.94
  A 0.54 0.52 -8.7 0 1 101.94 412.59
  L 90.37 379.70
  Q 90.05 378.79 89.72 379.70
  L 77.83 412.34
  Q 77.64 412.85 77.09 412.90
  C 70.30 413.48 63.92 413.29 62.00 405.46
  Q 56.36 382.49 50.92 359.41
  A 0.32 0.32 0.0 0 1 51.23 359.01
  L 65.47 359.01
  Q 66.02 359.01 66.13 359.56
  L 72.48 392.61
  Q 72.70 393.74 73.08 392.66
  L 84.44 360.91
  Q 84.64 360.35 85.23 360.32
  C 90.51 359.99 94.96 359.58 96.93 365.27
  Q 101.72 379.10 106.68 392.66
  Z"
/>
<rect fill="#545454" x="427.74" y="359.03" width="14.72" height="53.92" rx="0.43"/>
</svg>
