<?xml version="1.0" encoding="UTF-8" standalone="no"?>
<!DOCTYPE svg PUBLIC "-//W3C//DTD SVG 1.0//EN" "http://www.w3.org/TR/2001/REC-SVG-20010904/DTD/svg10.dtd">
<svg xmlns="http://www.w3.org/2000/svg" version="1.0" viewBox="0.00 0.00 244.00 88.00">
<g>
<circle fill="#ff803a" cx="23.92" cy="21.33" r="10.15"/>
<path fill="#5b378d" d="
  M 35.66 30.14
  L 35.70 12.52
  A 1.47 1.47 0.0 0 1 37.90 11.25
  L 53.20 19.97
  A 1.47 1.47 0.0 0 1 53.21 22.52
  L 37.87 31.41
  A 1.47 1.47 0.0 0 1 35.66 30.14
  Z"
/>
<path fill="#5b378d" d="
  M 83.17 53.98
  A 0.79 0.78 2.0 0 0 82.32 54.77
  L 82.36 73.22
  A 0.82 0.81 0.0 0 1 81.53 74.04
  L 71.73 73.97
  A 1.24 1.24 0.0 0 1 70.49 72.73
  L 70.45 17.55
  Q 70.44 16.50 71.50 16.43
  C 80.42 15.82 89.11 15.11 97.93 15.85
  C 106.93 16.61 112.98 19.94 114.10 29.83
  Q 114.81 36.06 113.84 42.01
  Q 112.26 51.75 102.68 53.16
  Q 92.55 54.66 83.17 53.98
  Z
  M 82.36 26.94
  L 82.28 43.84
  A 0.80 0.80 0.0 0 0 83.07 44.64
  L 94.65 44.70
  A 7.54 7.35 0.3 0 0 102.23 37.39
  L 102.25 33.59
  A 7.54 7.35 0.3 0 0 94.75 26.20
  L 83.17 26.14
  A 0.80 0.80 0.0 0 0 82.36 26.94
  Z"
/>
<path fill="#5b378d" d="
  M 185.2852 60.0450
  A 13.93 13.93 0.0 0 1 171.2583 73.8774
  L 160.3986 73.8016
  A 13.93 13.93 0.0 0 1 146.5662 59.7747
  L 146.6748 44.2150
  A 13.93 13.93 0.0 0 1 160.7017 30.3826
  L 171.5614 30.4584
  A 13.93 13.93 0.0 0 1 185.3938 44.4853
  L 185.2852 60.0450
  Z
  M 174.2180 46.6242
  A 6.26 6.26 0.0 0 0 168.0460 40.2774
  L 164.2863 40.2249
  A 6.26 6.26 0.0 0 0 157.9395 46.3969
  L 157.7820 57.6758
  A 6.26 6.26 0.0 0 0 163.9540 64.0226
  L 167.7137 64.0751
  A 6.26 6.26 0.0 0 0 174.0605 57.9031
  L 174.2180 46.6242
  Z"
/>
<path fill="#5b378d" d="
  M 132.78 40.55
  A 3.06 3.06 0.0 0 0 129.78 43.60
  L 129.70 73.04
  A 0.99 0.99 0.0 0 1 128.71 74.03
  L 119.31 74.01
  A 0.98 0.97 -0.0 0 1 118.33 73.04
  Q 118.17 56.52 118.36 40.84
  Q 118.41 36.37 121.54 33.41
  C 126.05 29.13 137.25 30.33 142.61 31.60
  A 1.19 1.18 6.8 0 1 143.52 32.75
  L 143.55 38.89
  Q 143.56 40.33 142.12 40.36
  L 132.78 40.55
  Z"
/>
<path fill="#5b378d" d="
  M 208.62 40.76
  Q 208.20 40.47 207.69 40.47
  Q 199.51 40.51 191.28 40.51
  Q 190.00 40.51 189.99 39.23
  L 189.89 32.31
  Q 189.87 31.00 191.19 31.00
  L 223.26 30.98
  A 1.57 1.56 -6.8 0 1 224.78 32.17
  Q 225.96 36.96 223.16 40.67
  Q 214.55 52.01 206.99 62.18
  Q 206.51 62.83 206.29 63.61
  A 0.54 0.53 6.2 0 0 206.84 64.28
  Q 215.77 63.82 224.72 64.19
  Q 226.02 64.24 226.01 65.54
  L 225.97 72.77
  Q 225.96 74.01 224.73 74.01
  L 190.32 73.99
  A 1.21 1.21 0.0 0 1 189.11 72.78
  C 189.11 70.30 188.65 67.80 190.26 65.65
  Q 199.87 52.82 208.68 41.18
  Q 208.87 40.93 208.62 40.76
  Z"
/>
<path fill="#ff803a" d="
  M 52.13 43.09
  Q 47.08 51.25 36.99 52.91
  A 1.54 1.53 85.4 0 1 35.21 51.39
  L 35.24 35.11
  A 2.13 2.13 0.0 0 1 37.39 32.99
  L 52.74 33.13
  Q 55.19 33.16 54.60 35.53
  C 53.95 38.12 53.57 40.78 52.13 43.09
  Z"
/>
<path fill="#ff803a" d="
  M 16.50 33.69
  L 33.08 50.24
  A 1.48 1.48 0.0 0 1 32.76 52.58
  L 31.89 53.07
  A 1.48 1.48 0.0 0 1 31.14 53.25
  L 15.45 53.04
  A 1.48 1.48 0.0 0 1 13.99 51.56
  L 13.97 34.74
  A 1.48 1.48 0.0 0 1 16.50 33.69
  Z"
/>
<rect fill="#ff803a" x="-9.89" y="-9.71" transform="translate(23.88,64.30) rotate(0.1)" width="19.78" height="19.42" rx="1.73"/>
</g>
</svg>
